<?xml version="1.0" standalone="no"?>
<!DOCTYPE svg PUBLIC "-//W3C//DTD SVG 20010904//EN"
 "http://www.w3.org/TR/2001/REC-SVG-20010904/DTD/svg10.dtd">
<svg version="1.0" xmlns="http://www.w3.org/2000/svg"
 width="499.000000pt" height="500.000000pt" viewBox="0 0 499.000000 500.000000"
 preserveAspectRatio="xMidYMid meet">

<g transform="translate(0.000000,500.000000) scale(0.100000,-0.100000)"
fill="#000000" stroke="none">
<path d="M740 4824 c-62 -11 -113 -28 -190 -66 -91 -44 -116 -62 -190 -137
-120 -121 -182 -234 -215 -390 -22 -105 -22 -689 0 -731 22 -42 53 -60 107
-60 39 0 54 6 80 29 l33 29 6 354 c6 391 7 402 75 503 45 67 80 105 138 149
113 85 168 95 544 96 336 0 356 3 392 62 24 40 25 69 5 112 -30 63 -50 66
-393 65 -217 -1 -332 -5 -392 -15z"/>
<path d="M3483 4824 c-34 -17 -63 -66 -63 -107 0 -31 38 -88 70 -104 18 -9
109 -13 340 -13 264 -1 326 -4 381 -18 158 -42 293 -172 353 -341 17 -50 20
-92 25 -399 l6 -344 33 -29 c26 -23 42 -29 78 -29 39 0 51 5 80 34 l34 34 0
335 c0 375 -6 426 -64 551 -66 143 -137 229 -261 313 -85 57 -135 81 -223 105
-70 19 -109 21 -417 25 -298 3 -344 1 -372 -13z"/>
<path d="M2375 4311 c-124 -34 -207 -85 -292 -176 -99 -106 -153 -234 -153
-362 0 -76 28 -113 85 -113 47 0 95 45 95 88 0 82 43 191 101 259 91 107 261
158 392 118 117 -35 211 -117 260 -225 28 -62 30 -224 4 -290 -58 -142 -210
-250 -353 -250 -32 0 -49 -7 -73 -29 l-31 -29 0 -337 0 -337 29 -29 c45 -45
111 -35 144 21 15 24 17 64 17 297 l0 268 51 12 c28 7 81 29 118 50 213 119
326 346 291 585 -25 172 -115 311 -265 405 -92 58 -149 74 -275 78 -63 3 -128
1 -145 -4z"/>
<path d="M1475 3181 c-11 -5 -29 -19 -40 -31 -18 -20 -20 -39 -23 -241 l-3
-220 34 -34 c19 -19 46 -37 61 -41 38 -9 91 17 116 58 19 31 20 47 18 241 l-3
209 -37 34 c-39 35 -78 43 -123 25z"/>
<path d="M3384 3156 l-34 -34 0 -220 0 -220 30 -30 c16 -16 41 -33 56 -36 37
-10 90 11 114 44 19 26 20 44 20 245 l0 217 -34 34 c-28 28 -42 34 -76 34 -34
0 -48 -6 -76 -34z"/>
<path d="M2454 2238 c-35 -16 -44 -52 -44 -164 0 -103 1 -106 29 -135 48 -47
116 -38 146 21 21 40 21 200 0 240 -25 48 -79 64 -131 38z"/>
<path d="M1680 1572 c-44 -21 -74 -79 -65 -122 15 -66 141 -173 301 -256 184
-94 351 -134 557 -134 219 0 407 45 570 137 33 18 61 33 64 33 25 0 200 145
219 182 33 63 3 139 -66 168 -45 19 -90 5 -150 -46 -224 -191 -513 -270 -803
-219 -159 28 -333 108 -452 209 -84 72 -112 80 -175 48z"/>
<path d="M205 1546 c-16 -7 -39 -23 -50 -36 -19 -21 -20 -38 -23 -343 -3 -358
3 -419 59 -554 35 -84 127 -212 199 -276 64 -57 207 -132 307 -159 71 -19 109
-22 408 -25 374 -4 383 -3 419 70 24 49 15 94 -25 133 l-30 29 -342 6 c-237 4
-354 10 -382 18 -162 52 -290 173 -348 328 -20 54 -22 80 -27 404 -5 329 -6
348 -25 369 -20 23 -74 50 -97 50 -7 -1 -26 -7 -43 -14z"/>
<path d="M4648 1538 c-20 -12 -41 -29 -45 -37 -4 -9 -10 -169 -13 -356 l-6
-340 -32 -80 c-42 -105 -116 -195 -204 -250 -125 -77 -131 -78 -515 -85 l-343
-5 -32 -33 c-27 -27 -33 -40 -33 -76 0 -49 25 -92 66 -114 19 -10 100 -12 359
-9 332 3 336 4 425 31 142 43 283 130 355 218 90 109 139 203 171 327 17 66
19 112 19 408 0 371 -1 377 -64 407 -45 21 -63 20 -108 -6z"/>
</g>
</svg>
